<svg xmlns="http://www.w3.org/2000/svg" width="100%" viewBox="0 0 937 195"><svg xmlns="http://www.w3.org/2000/svg" id="stats-card" width="467" height="195" x="0" y="0" viewBox="0 0 467 195"><title id="titleId">tukuyomi032&apos;s GitHub Stats, Rank: B+</title><desc id="descId">Total Stars Earned: 20, Total Commits (last year) : 1901, Total PRs: 80, Total Issues: 2, Contributed to (last year): 9</desc><style>.header{font:600 18px &apos;Segoe UI&apos;,Ubuntu,Sans-Serif;fill:#bddfff;animation:fadeInAnimation .8s ease-in-out forwards}@supports (-moz-appearance:auto){.header{font-size:15.5px}}.stat{font:600 14px &apos;Segoe UI&apos;,Ubuntu,&quot;Helvetica Neue&quot;,Sans-Serif;fill:#6e93b5}@supports (-moz-appearance:auto){.stat{font-size:12px}}.stagger{opacity:0;animation:fadeInAnimation .3s ease-in-out forwards}.rank-text{font:800 24px &apos;Segoe UI&apos;,Ubuntu,Sans-Serif;fill:#6e93b5;animation:scaleInAnimation .3s ease-in-out forwards}.bold{font-weight:700}.icon{fill:#38a0ff;display:block}.rank-circle,.rank-circle-rim{stroke:#bddfff;fill:none;stroke-width:6}.rank-circle-rim{opacity:.2}.rank-circle{stroke-dasharray:250;stroke-linecap:round;opacity:.8;transform-origin:-10px 8px;transform:rotate(-90deg);animation:rankAnimation 1s forwards ease-in-out}</style><rect width="466" height="99%" x=".5" y=".5" fill="#172f45" stroke="#e4e2e2" stroke-opacity="1" data-testid="card-bg" rx="4.5"/><g data-testid="card-title"><g><text x="0" y="0" class="header" data-testid="header" transform="translate(25, 35) translate(0, 0)">tukuyomi032&apos;s GitHub Stats</text></g></g><g data-testid="main-card-body" transform="translate(0, 55)"><g data-testid="rank-circle" transform="translate(390.5, 47.5)"><circle cx="-10" cy="8" r="40" class="rank-circle-rim"/><circle cx="-10" cy="8" r="40" class="rank-circle"/><g class="rank-text"><text x="-5" y="3" alignment-baseline="central" data-testid="level-rank-icon" dominant-baseline="central" text-anchor="middle">B+</text></g></g><svg x="0" y="0"><g><g class="stagger" style="animation-delay:450ms" transform="translate(0, 0) translate(25, 0)"><svg width="16" height="16" class="icon" data-testid="icon" version="1.1" viewBox="0 0 16 16"><path fill-rule="evenodd" d="M8 .25a.75.75 0 01.673.418l1.882 3.815 4.21.612a.75.75 0 01.416 1.279l-3.046 2.97.719 4.192a.75.75 0 01-1.088.791L8 12.347l-3.766 1.98a.75.75 0 01-1.088-.79l.72-4.194L.818 6.374a.75.75 0 01.416-1.28l4.21-.611L7.327.668A.75.75 0 018 .25zm0 2.445L6.615 5.5a.75.75 0 01-.564.41l-3.097.45 2.24 2.184a.75.75 0 01.216.664l-.528 3.084 2.769-1.456a.75.75 0 01.698 0l2.77 1.456-.53-3.084a.75.75 0 01.216-.664l2.24-2.183-3.096-.45a.75.75 0 01-.564-.41L8 2.694v.001z"/></svg><text x="25" y="12.5" class="stat bold">Total Stars Earned:</text><text x="219.01" y="12.5" class="stat bold" data-testid="stars">20</text></g></g><g><g class="stagger" style="animation-delay:600ms" transform="translate(0, 25) translate(25, 0)"><svg width="16" height="16" class="icon" data-testid="icon" version="1.1" viewBox="0 0 16 16"><path fill-rule="evenodd" d="M1.643 3.143L.427 1.927A.25.25 0 000 2.104V5.75c0 .138.112.25.25.25h3.646a.25.25 0 00.177-.427L2.715 4.215a6.5 6.5 0 11-1.18 4.458.75.75 0 10-1.493.154 8.001 8.001 0 101.6-5.684zM7.75 4a.75.75 0 01.75.75v2.992l2.028.812a.75.75 0 01-.557 1.392l-2.5-1A.75.75 0 017 8.25v-3.5A.75.75 0 017.75 4z"/></svg><text x="25" y="12.5" class="stat bold">Total Commits (last year):</text><text x="219.01" y="12.5" class="stat bold" data-testid="commits">1.9k</text></g></g><g><g class="stagger" style="animation-delay:750ms" transform="translate(0, 50) translate(25, 0)"><svg width="16" height="16" class="icon" data-testid="icon" version="1.1" viewBox="0 0 16 16"><path fill-rule="evenodd" d="M7.177 3.073L9.573.677A.25.25 0 0110 .854v4.792a.25.25 0 01-.427.177L7.177 3.427a.25.25 0 010-.354zM3.75 2.5a.75.75 0 100 1.5.75.75 0 000-1.5zm-2.25.75a2.25 2.25 0 113 2.122v5.256a2.251 2.251 0 11-1.5 0V5.372A2.25 2.25 0 011.5 3.25zM11 2.5h-1V4h1a1 1 0 011 1v5.628a2.251 2.251 0 101.5 0V5A2.5 2.5 0 0011 2.5zm1 10.25a.75.75 0 111.5 0 .75.75 0 01-1.5 0zM3.75 12a.75.75 0 100 1.5.75.75 0 000-1.5z"/></svg><text x="25" y="12.5" class="stat bold">Total PRs:</text><text x="219.01" y="12.5" class="stat bold" data-testid="prs">80</text></g></g><g><g class="stagger" style="animation-delay:900ms" transform="translate(0, 75) translate(25, 0)"><svg width="16" height="16" class="icon" data-testid="icon" version="1.1" viewBox="0 0 16 16"><path fill-rule="evenodd" d="M8 1.5a6.5 6.5 0 100 13 6.5 6.5 0 000-13zM0 8a8 8 0 1116 0A8 8 0 010 8zm9 3a1 1 0 11-2 0 1 1 0 012 0zm-.25-6.25a.75.75 0 00-1.5 0v3.5a.75.75 0 001.5 0v-3.5z"/></svg><text x="25" y="12.5" class="stat bold">Total Issues:</text><text x="219.01" y="12.5" class="stat bold" data-testid="issues">2</text></g></g><g><g class="stagger" style="animation-delay:1050ms" transform="translate(0, 100) translate(25, 0)"><svg width="16" height="16" class="icon" data-testid="icon" version="1.1" viewBox="0 0 16 16"><path fill-rule="evenodd" d="M2 2.5A2.5 2.5 0 014.5 0h8.75a.75.75 0 01.75.75v12.5a.75.75 0 01-.75.75h-2.5a.75.75 0 110-1.5h1.75v-2h-8a1 1 0 00-.714 1.7.75.75 0 01-1.072 1.05A2.495 2.495 0 012 11.5v-9zm10.5-1V9h-8c-.356 0-.694.074-1 .208V2.5a1 1 0 011-1h8zM5 12.25v3.25a.25.25 0 00.4.2l1.45-1.087a.25.25 0 01.3 0L8.6 15.7a.25.25 0 00.4-.2v-3.25a.25.25 0 00-.25-.25h-3.5a.25.25 0 00-.25.25z"/></svg><text x="25" y="12.5" class="stat bold">Contributed to (last year):</text><text x="219.01" y="12.5" class="stat bold" data-testid="contribs">9</text></g></g></svg></g></svg><svg xmlns="http://www.w3.org/2000/svg" id="langs-card" width="460" height="195" x="477" y="0" viewBox="0 0 460 195"><title id="titleId"/><desc id="descId"/><style>.header{font:600 18px &apos;Segoe UI&apos;,Ubuntu,Sans-Serif;fill:#bddfff;animation:fadeInAnimation .8s ease-in-out forwards}@supports (-moz-appearance:auto){.header{font-size:15.5px}}.stat{font:600 14px &apos;Segoe UI&apos;,Ubuntu,&quot;Helvetica Neue&quot;,Sans-Serif;fill:#6e93b5}@supports (-moz-appearance:auto){.stat{font-size:12px}}.bold{font-weight:700}.lang-name{font:400 11px &quot;Segoe UI&quot;,Ubuntu,Sans-Serif;fill:#6e93b5}.stagger{opacity:0;animation:fadeInAnimation .3s ease-in-out forwards}#rect-mask rect{animation:slideInAnimation 1s ease-in-out forwards}</style><rect width="459" height="99%" x=".5" y=".5" fill="#172f45" stroke="#e4e2e2" stroke-opacity="1" data-testid="card-bg" rx="4.5"/><g data-testid="card-title"><g><text x="0" y="0" class="header" data-testid="header" transform="translate(25, 35) translate(0, 0)">Most Used Languages</text></g></g><g data-testid="main-card-body" transform="translate(0, 55)"><svg x="25" data-testid="lang-items"><mask id="rect-mask"><rect width="410" height="8" x="0" y="0" fill="#fff" rx="5"/></mask><rect width="287.28" height="8" x="0" y="0" fill="#3178c6" data-testid="lang-progress" mask="url(#rect-mask)"/><rect width="32.82" height="8" x="287.28" y="0" fill="#F05138" data-testid="lang-progress" mask="url(#rect-mask)"/><rect width="29.64" height="8" x="320.1" y="0" fill="#dea584" data-testid="lang-progress" mask="url(#rect-mask)"/><rect width="26.46" height="8" x="349.74" y="0" fill="#b07219" data-testid="lang-progress" mask="url(#rect-mask)"/><rect width="13.34" height="8" x="376.2" y="0" fill="#3572A5" data-testid="lang-progress" mask="url(#rect-mask)"/><rect width="10.47" height="8" x="389.54" y="0" fill="#e34c26" data-testid="lang-progress" mask="url(#rect-mask)"/><rect width="17.26" height="8" x="400.01" y="0" fill="#89e051" data-testid="lang-progress" mask="url(#rect-mask)"/><rect width="12.73" height="8" x="407.27" y="0" fill="navy" data-testid="lang-progress" mask="url(#rect-mask)"/><g><g><g><g class="stagger" style="animation-delay:450ms" transform="translate(0, 25) translate(0, 0) translate(0, 0)"><circle cx="5" cy="6" r="5" fill="#3178c6"/><text x="15" y="10" class="lang-name" data-testid="lang-name">TypeScript 70.07%</text></g></g><g><g class="stagger" style="animation-delay:600ms" transform="translate(0, 25) translate(0, 0) translate(0, 25)"><circle cx="5" cy="6" r="5" fill="#F05138"/><text x="15" y="10" class="lang-name" data-testid="lang-name">Swift 8.01%</text></g></g><g><g class="stagger" style="animation-delay:750ms" transform="translate(0, 25) translate(0, 0) translate(0, 50)"><circle cx="5" cy="6" r="5" fill="#dea584"/><text x="15" y="10" class="lang-name" data-testid="lang-name">Rust 7.23%</text></g></g><g><g class="stagger" style="animation-delay:900ms" transform="translate(0, 25) translate(0, 0) translate(0, 75)"><circle cx="5" cy="6" r="5" fill="#b07219"/><text x="15" y="10" class="lang-name" data-testid="lang-name">Java 6.45%</text></g></g></g><g><g><g class="stagger" style="animation-delay:450ms" transform="translate(0, 25) translate(150, 0) translate(0, 0)"><circle cx="5" cy="6" r="5" fill="#3572A5"/><text x="15" y="10" class="lang-name" data-testid="lang-name">Python 3.25%</text></g></g><g><g class="stagger" style="animation-delay:600ms" transform="translate(0, 25) translate(150, 0) translate(0, 25)"><circle cx="5" cy="6" r="5" fill="#e34c26"/><text x="15" y="10" class="lang-name" data-testid="lang-name">HTML 2.55%</text></g></g><g><g class="stagger" style="animation-delay:750ms" transform="translate(0, 25) translate(150, 0) translate(0, 50)"><circle cx="5" cy="6" r="5" fill="#89e051"/><text x="15" y="10" class="lang-name" data-testid="lang-name">Shell 1.77%</text></g></g><g><g class="stagger" style="animation-delay:900ms" transform="translate(0, 25) translate(150, 0) translate(0, 75)"><circle cx="5" cy="6" r="5" fill="navy"/><text x="15" y="10" class="lang-name" data-testid="lang-name">Lua 0.67%</text></g></g></g></g></svg></g></svg></svg>