<?xml version="1.0" encoding="UTF-8"?>
<svg version="1.1" xmlns="http://www.w3.org/2000/svg" width="300" height="300">
<path d="M0 0 C32.53114906 25.49346529 53.60940942 61.09699326 58.75146484 102.37255859 C61.17549352 148.90777239 49.89863133 188.99443624 18.74755859 224.12255859 C-4.97460164 250.21464874 -41.56149101 268.72197407 -76.95117188 270.56542969 C-124.03153519 271.51917554 -163.4494774 259.921306 -198.24853516 227.37255859 C-225.76655968 200.206327 -241.29042282 162.37008846 -241.61181641 123.88772583 C-241.82772809 79.85017572 -226.4707172 41.96020774 -195.53369141 10.62255859 C-142.67441311 -39.05429619 -57.74586536 -44.30825083 0 0 Z " fill="#55C500" transform="translate(241.24853515625,29.62744140625)"/>
<path d="M0 0 C1.66894531 1.07177734 1.66894531 1.07177734 3 3 C3.29226931 5.53144139 3.4139527 7.84641782 3.4140625 10.37890625 C3.45272192 11.87309197 3.4931451 13.36723289 3.53515625 14.86132812 C3.58641315 17.20279212 3.62494393 19.54199472 3.63134766 21.8840332 C3.61511504 33.22343844 3.61511504 33.22343844 9.33203125 42.71484375 C10.87416285 44.15817968 12.4284785 45.58872092 14 47 C29.05778334 67.44451116 35.16350631 91.36391958 35.375 116.4375 C35.38383713 117.44203217 35.38383713 117.44203217 35.39285278 118.46685791 C35.43794308 127.9041583 34.70005342 136.04052446 30.99609375 144.7734375 C29.65621069 149.11360774 30.01703788 151.55433039 31 156 C32.39425403 158.6690746 32.39425403 158.6690746 34.3125 160.8125 C34.90675781 161.54082031 35.50101563 162.26914063 36.11328125 163.01953125 C39.62309709 166.7601654 39.62309709 166.7601654 44.36254883 168.29296875 C45.21872803 168.25816406 46.07490723 168.22335938 46.95703125 168.1875 C47.90513672 168.16429687 48.85324219 168.14109375 49.83007812 168.1171875 C51.80665874 168.03952225 53.78322157 167.96140272 55.75976562 167.8828125 C61.7063418 167.73787225 65.72839439 168.17671331 71 171 C69.48511525 175.24965038 67.32167407 178.92310757 64.875 182.6875 C64.47901611 183.30036865 64.08303223 183.9132373 63.67504883 184.54467773 C60.1137692 189.97561144 56.16260062 195.01735815 52 200 C51.38769531 200.91652344 50.77539062 201.83304688 50.14453125 202.77734375 C48 205 48 205 45.109375 205.46875 C31.98010562 203.48946316 19.19473316 192.06889031 11.30859375 181.796875 C10.87675781 181.20390625 10.44492188 180.6109375 10 180 C9.52433594 180.4846875 9.04867187 180.969375 8.55859375 181.46875 C-2.62728473 192.18082516 -16.13255758 197.58765146 -31 201 C-32.27593018 201.29414795 -32.27593018 201.29414795 -33.57763672 201.59423828 C-64.35325034 208.40172163 -96.28069486 206.97438829 -124 191 C-127.55461564 188.55006464 -130.79612265 185.88966171 -134 183 C-134.68449219 182.40832031 -135.36898437 181.81664062 -136.07421875 181.20703125 C-151.44833368 167.04109824 -159.64800913 144.79251605 -161.20874023 124.25292969 C-161.99664032 101.91432482 -159.86478561 79.44130936 -148.125 59.875 C-145.39598967 52.90086249 -148.67439772 44.85737138 -150.62719727 37.93603516 C-151.98342717 32.91991043 -153.48549184 26.79621994 -150.9375 22 C-144.61723314 18.73792678 -136.69122909 22.35571426 -130.40820312 24.31054688 C-129.64056641 24.53935547 -128.87292969 24.76816406 -128.08203125 25.00390625 C-127.39343018 25.21861572 -126.7048291 25.4333252 -125.99536133 25.65454102 C-122.77166302 26.21266326 -120.6866009 25.46721363 -118.01953125 23.65234375 C-117.29121094 23.08644531 -116.56289062 22.52054688 -115.8125 21.9375 C-105.91908533 14.83941403 -93.98730189 9.2832956 -82 7 C-80.99259766 6.80664062 -80.99259766 6.80664062 -79.96484375 6.609375 C-64.19103721 4.2995305 -46.69327474 5.39831355 -31.89453125 11.546875 C-28.60887662 12.33272229 -25.82601657 11.43997479 -22.89111328 9.87670898 C-22.20774902 9.42110596 -21.52438477 8.96550293 -20.8203125 8.49609375 C-20.05589844 8.00302734 -19.29148438 7.50996094 -18.50390625 7.00195312 C-16.92161666 5.96138337 -15.34344718 4.91452062 -13.76953125 3.86132812 C-9.06732443 0.84638375 -5.77940265 -0.97771849 0 0 Z " fill="#FDFEFD" transform="translate(212,49)"/>
<path d="M0 0 C0.88945312 0.37382813 1.77890625 0.74765625 2.6953125 1.1328125 C15.0066875 6.81788169 26.09479885 16.67610195 32 29 C32 29.66 32 30.32 32 31 C32.96421875 30.6390625 33.9284375 30.278125 34.921875 29.90625 C36.19779268 29.43716262 37.47384129 28.96843127 38.75 28.5 C39.38421875 28.26152344 40.0184375 28.02304688 40.671875 27.77734375 C44.03286607 26.55198242 46.36871587 26 50 26 C50 26.99 50 27.98 50 29 C48.08594633 29.67413211 46.16863974 30.3390332 44.25 31 C43.18265625 31.37125 42.1153125 31.7425 41.015625 32.125 C38 33 38 33 34 33 C34.99 35.97 34.99 35.97 36 39 C40.95 38.34 45.9 37.68 51 37 C51 37.99 51 38.98 51 40 C46.38 40.33 41.76 40.66 37 41 C37.33 42.98 37.66 44.96 38 47 C39.19625 47.144375 40.3925 47.28875 41.625 47.4375 C45.1005158 47.87039343 48.54950034 48.39616256 52 49 C52 49.99 52 50.98 52 52 C47.62065881 51.48041715 43.31196609 50.94324258 39 50 C39.33 50.66 39.66 51.32 40 52 C41.1944751 64.94341048 38.39588961 76.28357028 30.328125 86.5625 C26.40045149 90.67469508 22.00103777 93.36094821 17 96 C16.19304687 96.46019531 15.38609375 96.92039062 14.5546875 97.39453125 C-5.22252795 107.65512422 -38.25228221 110.12137595 -59.38671875 103.97265625 C-70.40299758 99.87242691 -78.8885019 94.24658246 -84.74609375 83.82421875 C-87.65262406 77.2777346 -89.23850144 70.16829319 -89 63 C-89.61488281 63.28875 -90.22976562 63.5775 -90.86328125 63.875 C-91.67152344 64.24625 -92.47976562 64.6175 -93.3125 65 C-94.11300781 65.37125 -94.91351563 65.7425 -95.73828125 66.125 C-98 67 -98 67 -101 67 C-100 64 -100 64 -98.00390625 62.83203125 C-97.19824219 62.49558594 -96.39257812 62.15914063 -95.5625 61.8125 C-94.75941406 61.46832031 -93.95632812 61.12414062 -93.12890625 60.76953125 C-91 60 -91 60 -89 60 C-89 58.02 -89 56.04 -89 54 C-95.435 54.495 -95.435 54.495 -102 55 C-102 54.01 -102 53.02 -102 52 C-97.38 52 -92.76 52 -88 52 C-87.505 49.03 -87.505 49.03 -87 46 C-92.28 45.67 -97.56 45.34 -103 45 C-103 44.01 -103 43.02 -103 42 C-91.47835991 42.96355353 -91.47835991 42.96355353 -86 44 C-85.896875 42.97519531 -85.79375 41.95039062 -85.6875 40.89453125 C-83.79100701 30.15132946 -76.56632979 21.47640736 -69 14 C-68.31292969 13.29101562 -67.62585938 12.58203125 -66.91796875 11.8515625 C-49.79788144 -4.72855917 -21.79768208 -9.23835279 0 0 Z " fill="#55C501" transform="translate(172,76)"/>
<path d="M0 0 C0 0.99 0 1.98 0 3 C-1.9570868 3.67031719 -3.91571113 4.33614683 -5.875 5 C-6.96554688 5.37125 -8.05609375 5.7425 -9.1796875 6.125 C-12 7 -12 7 -14 7 C-14.33 6.01 -14.66 5.02 -15 4 C-13.25307205 3.32532438 -11.50231475 2.66055844 -9.75 2 C-8.77546875 1.62875 -7.8009375 1.2575 -6.796875 0.875 C-4 0 -4 0 0 0 Z " fill="#6CCD23" transform="translate(222,102)"/>
<path d="M0 0 C0 1.98 0 3.96 0 6 C-0.33 6 -0.66 6 -1 6 C-1 4.35 -1 2.7 -1 1 C-1.61488281 1.28875 -2.22976562 1.5775 -2.86328125 1.875 C-3.67152344 2.24625 -4.47976562 2.6175 -5.3125 3 C-6.51326172 3.556875 -6.51326172 3.556875 -7.73828125 4.125 C-10 5 -10 5 -13 5 C-12 2 -12 2 -8.75 0.25 C-5.07918075 -0.97360642 -3.58391038 -1.19463679 0 0 Z " fill="#6DCD24" transform="translate(84,138)"/>
<path d="M0 0 C0.89203125 0.10183594 1.7840625 0.20367187 2.703125 0.30859375 C3.37859375 0.39238281 4.0540625 0.47617188 4.75 0.5625 C4.75 1.5525 4.75 2.5425 4.75 3.5625 C-2.18 3.0675 -2.18 3.0675 -9.25 2.5625 C-9.25 1.9025 -9.25 1.2425 -9.25 0.5625 C-5.98086376 -0.46865279 -3.38958652 -0.4013984 0 0 Z " fill="#6FCE28" transform="translate(219.25,124.4375)"/>
<path d="M0 0 C1.45945288 0.08708669 2.91765868 0.19526907 4.375 0.3125 C5.59316406 0.39951172 5.59316406 0.39951172 6.8359375 0.48828125 C9 1 9 1 11 4 C7.37 3.67 3.74 3.34 0 3 C0 2.01 0 1.02 0 0 Z " fill="#62C914" transform="translate(69,118)"/>
</svg>
